<svg width="684" height="673" viewBox="0 0 684 673" fill="none" xmlns="http://www.w3.org/2000/svg">
<g opacity="0.5">
<path d="M217.337 158.969C173.574 158.95 133.062 172.921 103.695 200.408C74.3348 227.868 56.6171 268.742 56.6147 319.687C56.6184 373.135 94.219 422.83 145.14 471.61C196.071 520.407 261.589 568.554 321.556 618.537C325.092 621.367 330.599 621.343 334.12 618.521C394.066 568.577 459.458 520.27 510.525 471.625C561.638 422.976 599.679 373.706 599.695 319.691C599.7 268.187 581.359 227.741 551.977 200.395C522.594 173.05 482.685 158.974 438.966 158.952C393.989 158.96 355.989 187.326 327.841 216.081C299.807 187.494 262.225 158.966 217.337 158.969Z" fill="#FF005D" fill-opacity="0.2"/>
<path d="M239.477 215.694C204.815 215.679 172.728 226.744 149.469 248.515C126.214 270.264 112.181 302.638 112.18 342.988C112.183 385.32 141.963 424.68 182.294 463.316C222.633 501.965 274.526 540.098 322.022 579.687C324.823 581.928 329.184 581.909 331.973 579.674C379.452 540.117 431.244 501.856 471.692 463.327C512.174 424.796 542.304 385.773 542.317 342.991C542.321 302.198 527.794 270.163 504.522 248.505C481.251 226.846 449.641 215.698 415.015 215.68C379.391 215.687 349.294 238.154 327 260.929C304.796 238.287 275.029 215.692 239.477 215.694Z" fill="#FF005D"/>
</g>
</svg>
