<svg width="15" height="16" viewBox="0 0 15 16" fill="none" xmlns="http://www.w3.org/2000/svg">
<path d="M14.9933 10.6757V0.891708C14.9927 0.758107 14.9603 0.626361 14.8986 0.506253C14.8368 0.386146 14.7474 0.280764 14.6368 0.197932C14.5278 0.114342 14.4004 0.0549723 14.264 0.0241876C14.1276 -0.006597 13.9857 -0.00801411 13.8486 0.0200403L5.4043 1.79895C5.19584 1.84352 5.00967 1.95421 4.87659 2.11271C4.74351 2.27122 4.6715 2.46804 4.67246 2.67062V10.0887C4.03194 9.80203 3.31064 9.71999 2.61677 9.85487C1.92289 9.98975 1.29386 10.3343 0.824036 10.8368C0.354211 11.3393 0.0689265 11.9726 0.0109795 12.6418C-0.0469674 13.3111 0.125548 13.98 0.502645 14.5484C0.879742 15.1168 1.44109 15.554 2.10247 15.7943C2.76385 16.0347 3.48961 16.0652 4.17087 15.8814C4.85213 15.6976 5.45215 15.3094 5.88092 14.7749C6.3097 14.2405 6.54411 13.5886 6.54898 12.9172C6.55869 12.7631 6.55869 12.6087 6.54898 12.4546V3.38219L13.1168 2.00353V8.30977C12.4759 8.02294 11.7542 7.94096 11.06 8.07614C10.3657 8.21133 9.73652 8.55637 9.2668 9.05946C8.79708 9.56255 8.51222 10.1965 8.45499 10.8662C8.39776 11.5358 8.57125 12.205 8.94941 12.7732C9.32758 13.3414 9.88999 13.778 10.5522 14.0174C11.2144 14.2567 11.9407 14.286 12.6219 14.1007C13.3031 13.9154 13.9026 13.5256 14.3302 12.9898C14.7578 12.454 14.9905 11.8012 14.9933 11.1293C15.0022 10.9783 15.0022 10.8268 14.9933 10.6757Z" fill="#FF005D"/>
</svg>
