<svg width="20" height="23" viewBox="0 0 20 23" fill="none" xmlns="http://www.w3.org/2000/svg">
<path d="M3.33333 0C2.44928 0 1.60143 0.346172 0.976311 0.962363C0.351189 1.57855 0 2.41429 0 3.28571V19.7143C0 20.5857 0.351189 21.4214 0.976311 22.0376C1.60143 22.6538 2.44928 23 3.33333 23C4.21739 23 5.06523 22.6538 5.69036 22.0376C6.31548 21.4214 6.66667 20.5857 6.66667 19.7143V3.28571C6.66667 2.41429 6.31548 1.57855 5.69036 0.962363C5.06523 0.346172 4.21739 0 3.33333 0ZM16.6667 0C15.7826 0 14.9348 0.346172 14.3096 0.962363C13.6845 1.57855 13.3333 2.41429 13.3333 3.28571V19.7143C13.3333 20.5857 13.6845 21.4214 14.3096 22.0376C14.9348 22.6538 15.7826 23 16.6667 23C17.5507 23 18.3986 22.6538 19.0237 22.0376C19.6488 21.4214 20 20.5857 20 19.7143V3.28571C20 2.41429 19.6488 1.57855 19.0237 0.962363C18.3986 0.346172 17.5507 0 16.6667 0Z" fill="#FF005D"/>
</svg>
