<svg width="17" height="23" viewBox="0 0 17 23" fill="none" xmlns="http://www.w3.org/2000/svg">
<path d="M1.70005 23C1.38894 23 1.07953 22.885 0.805824 22.6573C0.559615 22.4506 0.356415 22.1624 0.215418 21.8199C0.0744205 21.4774 0.000280254 21.092 0 20.7V2.29963C0 1.50152 0.306009 0.760902 0.805824 0.342294C1.05258 0.13704 1.33386 0.020063 1.62323 0.00235943C1.91259 -0.0153441 2.20053 0.0668079 2.45997 0.241092L16.0604 9.44126C16.3428 9.63262 16.5802 9.92653 16.7462 10.2901C16.9121 10.6536 17 11.0725 17 11.4998C17 11.9271 16.9121 12.3459 16.7462 12.7095C16.5802 13.0731 16.3428 13.367 16.0604 13.5583L2.45997 22.7585C2.22197 22.9195 1.95846 23 1.70005 23Z" fill="#FF005D"/>
</svg>
