<svg width="19" height="16" viewBox="0 0 19 16" fill="none" xmlns="http://www.w3.org/2000/svg">
<path d="M5.78102 1.95309C5.58226 1.87561 5.42603 1.72711 5.34793 1.54633L4.70182 0.164641C4.58111 -0.0548783 4.23321 -0.0548783 4.1196 0.164641L3.47349 1.54633C3.38829 1.72711 3.23209 1.86915 3.04039 1.95309L2.21677 2.28883C1.97536 2.39858 1.97536 2.71496 2.21677 2.82472L3.04039 3.16045C3.23919 3.23793 3.39539 3.38643 3.47349 3.56721L4.1196 4.95532C4.24031 5.17491 4.58821 5.17491 4.70182 4.95532L5.34793 3.56721C5.43311 3.38643 5.58932 3.24439 5.78102 3.16045L6.60467 2.82472C6.84603 2.71496 6.84603 2.39858 6.60467 2.28883L5.78102 1.95309ZM15.9969 6.11494C15.4066 5.86707 14.9398 5.41049 14.6928 4.8496L12.7501 0.518548C12.3932 -0.172849 11.3568 -0.172849 10.9998 0.518548L9.05723 4.8496C8.8033 5.41049 8.33652 5.86707 7.75308 6.11494L5.2957 7.16511C4.5681 7.50425 4.5681 8.49574 5.2957 8.83487L7.75308 9.88505C8.34337 10.1329 8.81016 10.5895 9.05723 11.1504L10.9998 15.4815C11.3568 16.1728 12.3932 16.1728 12.7501 15.4815L14.6928 11.1504C14.9467 10.5895 15.4135 10.1329 15.9969 9.88505L18.4543 8.83487C19.1819 8.49574 19.1819 7.50425 18.4543 7.16511L15.9969 6.11494ZM4.26217 10.4514C4.37117 10.7022 4.56994 10.8965 4.81999 11.0093L5.87154 11.4733C6.18565 11.6237 6.18565 12.0562 5.87154 12.2067L4.81999 12.6706C4.56994 12.7835 4.37117 12.9841 4.26217 13.2285L3.42866 15.1343C3.27477 15.4352 2.83237 15.4352 2.67848 15.1343L1.84497 13.2285C1.73597 12.9778 1.5372 12.7835 1.28715 12.6706L0.235629 12.2067C-0.0785429 12.0562 -0.0785429 11.6237 0.235629 11.4733L1.28715 11.0093C1.5372 10.8965 1.73597 10.6959 1.84497 10.4514L2.67848 8.54566C2.83237 8.24479 3.27477 8.24479 3.42866 8.54566L4.26217 10.4514Z" fill="white"/>
</svg>
