<svg width="11" height="16" viewBox="0 0 11 16" fill="none" xmlns="http://www.w3.org/2000/svg">
<path d="M5.5 11.2C7.23329 11.2 8.64286 9.764 8.64286 8V3.2C8.64286 1.4352 7.23329 0 5.5 0C3.76671 0 2.35714 1.4352 2.35714 3.2V8C2.35714 9.764 3.76671 11.2 5.5 11.2ZM11 8V6.4C11 6.18783 10.9172 5.98434 10.7699 5.83431C10.6225 5.68429 10.4227 5.6 10.2143 5.6C10.0059 5.6 9.80605 5.68429 9.6587 5.83431C9.51135 5.98434 9.42857 6.18783 9.42857 6.4V8C9.42857 10.2056 7.66621 12 5.5 12C3.33379 12 1.57143 10.2056 1.57143 8V6.4C1.57143 6.18783 1.48865 5.98434 1.3413 5.83431C1.19395 5.68429 0.994099 5.6 0.785714 5.6C0.57733 5.6 0.377481 5.68429 0.230131 5.83431C0.0827805 5.98434 0 6.18783 0 6.4V8C0 10.816 2.05307 13.1456 4.71429 13.536V14.4H2.35714C2.14876 14.4 1.94891 14.4843 1.80156 14.6343C1.65421 14.7843 1.57143 14.9878 1.57143 15.2C1.57143 15.4122 1.65421 15.6157 1.80156 15.7657C1.94891 15.9157 2.14876 16 2.35714 16H8.64286C8.85124 16 9.05109 15.9157 9.19844 15.7657C9.34579 15.6157 9.42857 15.4122 9.42857 15.2C9.42857 14.9878 9.34579 14.7843 9.19844 14.6343C9.05109 14.4843 8.85124 14.4 8.64286 14.4H6.28571V13.536C8.94693 13.1456 11 10.816 11 8Z" fill="white"/>
</svg>
