<svg width="19" height="18" viewBox="0 0 19 18" fill="none" xmlns="http://www.w3.org/2000/svg">
<path d="M9.5 18C9.31622 18 9.16071 17.9297 9.03348 17.7891L2.41741 10.7344C2.34673 10.6719 2.24953 10.5703 2.12584 10.4297C2.00214 10.2891 1.80599 10.0332 1.53739 9.66211C1.26879 9.29102 1.02846 8.91016 0.816406 8.51953C0.604353 8.12891 0.415272 7.65625 0.249163 7.10156C0.0830543 6.54688 0 6.00781 0 5.48438C0 3.76562 0.448847 2.42187 1.34654 1.45312C2.24423 0.484375 3.48475 0 5.06808 0C5.50632 0 5.9534 0.0839844 6.40932 0.251953C6.86523 0.419922 7.28934 0.646484 7.68164 0.931641C8.07394 1.2168 8.41146 1.48437 8.6942 1.73438C8.97693 1.98438 9.24554 2.25 9.5 2.53125C9.75446 2.25 10.0231 1.98438 10.3058 1.73438C10.5885 1.48437 10.9261 1.2168 11.3184 0.931641C11.7107 0.646484 12.1348 0.419922 12.5907 0.251953C13.0466 0.0839844 13.4937 0 13.9319 0C15.5153 0 16.7558 0.484375 17.6535 1.45312C18.5512 2.42187 19 3.76562 19 5.48438C19 7.21094 18.1907 8.96875 16.572 10.7578L9.96652 17.7891C9.83929 17.9297 9.68378 18 9.5 18Z" fill="white"/>
</svg>
