<svg width="53" height="53" viewBox="0 0 53 53" fill="none" xmlns="http://www.w3.org/2000/svg">
<path d="M35.8604 11.4554C37.6483 13.3072 37.597 16.2581 35.7453 18.0462L28.8364 24.7181C28.7628 24.7892 28.6861 24.856 28.6091 24.9213C28.536 25.0014 28.461 25.0806 28.3819 25.157C26.7814 26.7026 24.2301 26.6581 22.6845 25.0575L15.3139 17.4251C13.5539 15.6022 13.6051 12.6973 15.4279 10.9371C17.2506 9.17724 20.1549 9.22794 21.9152 11.0504L24.273 13.492C25.0108 14.256 26.2283 14.2773 26.9923 13.5395L29.2695 11.3404C31.1213 9.55212 34.0721 9.60363 35.8604 11.4554Z" fill="#FF005D"/>
<path d="M44.0565 18.5516C47.9634 22.195 48.1766 28.3166 44.5333 32.2236L28.5988 49.3113C28.2562 49.6787 27.8458 49.9439 27.405 50.1064C26.299 50.514 24.988 50.5144 23.8819 50.1067C23.4407 49.9441 23.0299 49.6785 22.687 49.3108L6.75193 32.2226C3.10869 28.3155 3.32232 22.1948 7.22933 18.5514C8.29826 17.5548 9.97303 17.6132 10.9697 18.682L19.7354 28.082C22.929 31.5068 28.3564 31.5068 31.55 28.082L40.3153 18.6821C41.3121 17.6132 42.9876 17.5548 44.0565 18.5516Z" fill="#FBCDE1"/>
<path d="M40.6326 17.9932C44.1023 21.2287 44.2925 26.6644 41.0572 30.1343L27.7399 44.4156C27.187 45.0084 26.4259 45.2891 25.675 45.2541C24.9203 45.2926 24.1547 45.0113 23.599 44.4154L10.282 30.1347C7.04641 26.6649 7.23561 21.2291 10.7053 17.9935C11.2748 17.4624 12.1673 17.4936 12.6983 18.0631L21.1688 27.1465C23.602 29.7559 27.7372 29.7558 30.1704 27.1464L38.6403 18.0632C39.1712 17.4938 40.0632 17.4624 40.6326 17.9932Z" fill="#FF005D"/>
</svg>
